<?xml version="1.0" standalone="no"?><!DOCTYPE svg PUBLIC "-//W3C//DTD SVG 1.1//EN" "http://www.w3.org/Graphics/SVG/1.1/DTD/svg11.dtd"><svg class="icon" width="200px" height="200.00px" viewBox="0 0 1024 1024" version="1.1" xmlns="http://www.w3.org/2000/svg"><path fill="#ffffff" d="M512.236708 0a511.763292 511.763292 0 1 0 413.292649 814.276468h-2.840499a14.675913 14.675913 0 0 1-6.627832 0h-4.734165a52.075821 52.075821 0 0 0-17.989829 0h-3.313916c-3.313916 0 0 0 0-2.840499s-9.941748 0-15.622746 0c-4.260749 0-11.835414 3.787332-12.782247 2.840499a37.399908 37.399908 0 0 0-22.723994 2.367083s-2.367083 4.260749-4.260749 5.680998-5.680999 0-7.101249 0-14.675913 8.048081-17.042996 3.313916a17.989829 17.989829 0 0 0-9.941747 0h-19.410079l-3.313916 2.840499v-2.840499c0-2.840499-3.787332 0-5.207582 0h-10.415164c-11.361997 0-21.303745 2.840499-33.139158 0l-26.984744 4.260749h-15.622746a160.961627 160.961627 0 0 0-27.931576 0h-2.8405c-14.675913-3.787332-47.341655 4.260749-49.708738 0s0-2.840499-8.521498 0c-8.521498 0-13.72908 8.048081-18.463245 3.787332l-2.840499-2.840499-3.313916 3.313916h2.840499a71.485899 71.485899 0 0 1-16.096163 0h-10.88858a62.490985 62.490985 0 0 0-22.723995-2.367083 80.95423 80.95423 0 0 1-17.516412 0h-31.245493c-3.787332-3.313916-8.048081 0-12.30883-3.787332s-25.091077-7.101248-27.931576-9.468331a90.422561 90.422561 0 0 1-11.361998 0 126.875636 126.875636 0 0 0-15.622746-13.72908h4.734166a6.627832 6.627832 0 0 1-9.941748 0l-5.207582-3.313916v-2.367083c0-2.367083-3.313916 0-4.260749 0h-8.048081c-2.840499 0 0-2.367083 0-3.313916a4.260749 4.260749 0 0 0-3.313916 0h-6.154415v-4.260749a47.341655 47.341655 0 0 1-5.207582-3.313915h-5.207582c-5.207582 7.574665 0 9.941748-8.521498 16.569579s0 0-2.8405 0 0-2.840499 0-3.313916 0 0-2.840499 0-2.840499-8.521498-5.207582-10.415164 0 0-2.840499 0 0-5.207582 0-6.154415a9.468331 9.468331 0 0 1-2.8405-4.260749h-2.367082v-8.521498c0-3.313916 0 0 0 0v-2.367083c0-2.367083 0 0-2.8405 0s0-3.787332 0-6.627832 0 0 2.8405 0-2.367083 0 0-5.680998h3.787332s-2.840499 0 0 2.840499 0 3.787332 0 4.734166 2.840499 3.787332 5.207582 4.734165a8.994914 8.994914 0 0 0 7.101248 0s4.260749-8.048081 3.313916-8.994914-3.313916 0-4.260749 0 0-4.260749 2.367083-6.627832-2.840499 0-4.260749 0 0-2.367083 0-3.313916 0-6.154415-2.840499-7.101248 0 0-3.787333 0a10.888581 10.888581 0 0 1 0-2.8405s-4.734166-11.361997 0-17.042995-3.787332 0-4.734165 0a13.255663 13.255663 0 0 1 0-8.521498h-12.30883a8.521498 8.521498 0 0 0 0-8.994915v-5.207582c0-0.946833 0 0-4.260749 0a17.516412 17.516412 0 0 1-8.048082 5.207582v2.8405c0 2.840499 0 0-3.313916 0l2.367083-3.313916h-5.680998c-0.946833 0 0-2.367083 0-3.313916v-8.048082c0-0.946833 0 0 0 0a152.440129 152.440129 0 0 1 0-22.723994v-3.313916s0-10.415164-2.8405-13.255663 2.840499 0 3.313916 0 0-9.468331 0-11.361998 0-3.787332 3.787332-8.994914 0 4.260749 0 4.734166v3.787332c0 0.946833 0 0 0 0a37.873324 37.873324 0 0 0 0.473417-27.931577c-2.840499-2.367083 0-8.994914 0-10.415164s0 0-3.313916 0 3.313916-2.840499 0-3.313916 0-8.521498 0-9.468331v-2.840499c0-2.840499-7.101248 0-8.048081 0s0-3.787332 0-5.680999-2.840499 0-3.787333 0 0-4.734166 0-6.627831h-5.207582c0-6.627832-2.840499-15.622746-3.313916-22.250578s3.313916-22.250578 0-25.091077 0 0-2.367082 0c9.468331-15.622746 2.840499-23.197411 9.468331-34.559409s4.734166-4.260749 3.787332-5.207582 0-6.627832 0-7.574664c6.154415-10.415164 2.840499-27.931577 3.787333-38.346741l-3.787333-47.341655c-3.313916-8.994914-5.207582-39.293574-6.627832-40.713824a142.024965 142.024965 0 0 1-8.521497-36.453074L267.953768 255.644938l-16.569579-35.506242s-5.680999-13.72908-8.994915-16.569579-2.840499-3.787332-4.260749-5.680999 3.787332-3.313916 4.734166-2.367082 21.303745 7.574665 25.091077 10.88858 43.080906 14.675913 47.341655 18.936662 57.283403 14.675913 61.544152 18.463246a302.513176 302.513176 0 0 0 37.399907 8.048081 478.150717 478.150717 0 0 0 57.283403 8.521498 520.758206 520.758206 0 0 0 67.698567 3.787333h2.840499l74.799815-2.8405c2.840499 2.367083 3.313916 0 8.994915 0l6.154415-2.840499c0 3.787332 2.840499 0 3.313916 0h19.883495c6.154415 0 0 0 2.367082-2.840499s6.627832 0 10.888581 0l4.260749-4.734166h7.101248l2.8405 2.840499-2.8405 2.367083v4.734166c0 0.946833 4.260749 0 5.207582 0h5.680999s-2.367083 0 0 0 8.521498-8.521498 26.03791-4.260749l3.313916-4.260749a43.554323 43.554323 0 0 0 9.941748-2.8405s-3.787332 6.627832-2.8405 7.574665 0 0 3.313916 0l4.734166-3.313916h8.048081c5.680999 0 8.048081 3.313916 12.308831 4.734166s10.888581-2.840499 11.835413 0l2.367083 2.367083h12.30883v2.367082h13.255664c0.946833 0 8.048081 4.260749 8.994914 5.207582s0 3.313916 0 4.260749 10.888581 4.260749 11.835414 5.207582-2.367083 0 0 2.8405 2.840499 0 3.787332 0 0 2.840499 2.8405 3.787332 4.260749 0 5.207582 0 0 2.840499 0 3.787333 3.313916 0 4.260749 0 0 6.154415 2.840499 7.101248 3.787332 4.734166 6.154415 5.680998a29.351826 29.351826 0 0 1 6.154415-3.313915v2.840499c0 2.840499 3.787332 0 4.734166 0a50.655571 50.655571 0 0 1 8.521498 26.511327h2.367083c0 5.680999 3.313916 17.042996 4.734165 23.670827h-2.840499v4.734166a8.521498 8.521498 0 0 1 4.734165 0s-7.574665 10.888581-8.048081 11.361997-2.367083 0-3.313916 0 0 3.787332 0 4.734166v17.989829c0 10.415164-6.154415 26.511327-8.048081 39.293573-2.367083 0 0 2.367083-3.787333 3.787333H845.995377c-2.840499 0 0 8.521498-2.8405 13.255663l-3.787332 2.840499h4.734166c2.367083 0 0 2.840499 0 3.787333l-8.048082 20.830328v5.680999h-3.313916v3.787332h4.260749a17.516412 17.516412 0 0 0 0 3.313916h-3.313916c-4.734166 6.627832-9.941748 11.835414-14.202496 18.936662s2.840499-2.367083 0-3.313916h3.787332a11.835414 11.835414 0 0 1 4.260749-5.207582v2.840499s2.840499-2.367083 4.260749-3.313915a8.048081 8.048081 0 0 1 2.8405-3.787333 50.655571 50.655571 0 0 1 9.468331-7.574665c-17.042996 14.675913-7.574665 13.255663-20.356912 24.144244h-2.367083c-2.367083 0 0 2.367083 0 3.313916s8.521498-3.787332 9.468331-2.840499 0 0 2.367083 0a27.45816 27.45816 0 0 1-12.30883 4.260749l-5.207582 3.313916a68.171983 68.171983 0 0 0-10.888581 16.096163v2.840499c0 2.840499-4.260749 5.680999-4.734166 8.521498a8.521498 8.521498 0 0 0-2.367082 5.680998 17.989829 17.989829 0 0 1-4.260749 2.8405 4.734166 4.734166 0 0 1 0-3.313916h-3.787333a21.303745 21.303745 0 0 1 0 5.680998h-6.154415a47.341655 47.341655 0 0 1 0 5.207582 64.384651 64.384651 0 0 0-6.627832 7.574665s-2.840499 0 0 0l2.8405-3.313916a14.675913 14.675913 0 0 0-9.941748 3.787333s2.367083 0 0 0h-4.260749a97.52381 97.52381 0 0 1-9.941747 8.994914v3.313916c0 0.473417 0 0-2.367083 0a17.989829 17.989829 0 0 0-4.734166 6.154415 47.341655 47.341655 0 0 0-10.88858 6.154416l-11.361998 9.468331-4.734165 2.367082v2.8405c0 2.840499-5.207582 0-7.101248 3.787332a4.260749 4.260749 0 0 0-3.313916 0h-3.787333c-3.787332 0 0 0 0 0a55.863153 55.863153 0 0 1-21.303744 8.521498 38.346741 38.346741 0 0 0-12.782247 3.787332l-2.8405 2.8405h-23.670827a5.680999 5.680999 0 0 1-5.207582 0h-6.154415c-0.946833 0 0 0 0 2.840499s-3.313916 0-4.734166 0a26.03791 26.03791 0 0 1 8.048081-3.787332h-12.30883s4.260749 0 5.680999-3.787333l-14.675913 3.787333a14.675913 14.675913 0 0 1 0-2.8405h-5.207582c-1.893666 0 3.313916 0 0 3.313916s0 0-2.367083 0h-6.627832c-2.840499 0-5.680999 2.840499-6.627832 0s-3.787332 0-4.260749 0 0 0 0-2.367083 0 0-2.840499 0a24.144244 24.144244 0 0 1-10.415164 4.734166h1.42025-9.468331c-2.367083 0 0 0 0 2.840499s0 0-2.367083 0h-3.313916l2.840499-2.367083c-6.627832 0-3.787332 0-9.468331 2.8405h2.367083a9.468331 9.468331 0 0 0-6.627832 0h3.313916v2.367082h5.680999v-3.787332 2.367083a20.830328 20.830328 0 0 1 6.627832 0v2.367083h2.367082a18.463245 18.463245 0 0 0-2.840499 3.787332l6.627832-2.840499v-3.787333c0-0.473417 0 0-3.313916 0s0-2.367083 0-3.313916h7.101248c-2.840499 2.840499 0 0 0 0v2.8405l3.787332-2.367083a9.941748 9.941748 0 0 0 0 3.313916 5.680999 5.680999 0 0 1 0-2.8405v4.260749a47.341655 47.341655 0 0 0 8.521498 0s-3.787332 2.840499-4.260749 3.787333-5.207582 0-6.627831 0a5.207582 5.207582 0 0 0-4.734166 0h5.680999a26.511327 26.511327 0 0 0-8.994915 0h2.8405v-2.367083l-6.154415 2.840499h-2.8405a7.574665 7.574665 0 0 0 0 2.8405h-6.154415-2.840499c-2.840499 0 0 0 0 0a5.680999 5.680999 0 0 1 0 2.840499v-4.260749a5.680999 5.680999 0 0 0-3.313916 0c0-3.313916 4.734166-4.260749 0-6.627832s0 0 4.260749 0h4.734165l-5.207582 5.207582h5.680999a16.569579 16.569579 0 0 0 6.154415 0v-5.207582h-18.463245a17.516412 17.516412 0 0 0 0-5.207582h-2.367083-2.367083s-5.207582 2.840499-6.154415 0 0 0 0-2.367082 0 0-6.627832 0a8.521498 8.521498 0 0 1-4.734165 3.313915c6.154415-3.787332 3.313916-4.734166 3.313916-5.680998l2.840499-2.8405a22.723994 22.723994 0 0 0-6.627832 2.8405 21.303745 21.303745 0 0 1-3.787332 4.260749v-2.8405c0-2.840499 0 0 3.787332 0l4.260749-3.313915v-3.313916c0-0.946833 0 0 0 0V615.441516h5.207582a9.941748 9.941748 0 0 0-6.627832-3.313915 7.101248 7.101248 0 0 1 0 7.101248l-5.680998 2.367083h2.840499-3.787332 6.154415a14.675913 14.675913 0 0 1-7.574665-2.367083v-3.313916c0-0.946833-6.154415 0-7.101248 0-8.521498-7.574665-10.888581-4.260749-16.56958-9.468331s0-4.260749-2.367082-5.207582-7.101248 0-8.048082-3.313916 0-2.840499 0-3.787332 0 0-3.787332 0 0 0 0-3.313916a23.197411 23.197411 0 0 1-4.260749-7.101249s-2.840499-2.367083 0-4.260748 0 0-6.154415 0 0 2.367083 0 3.787332 0 0-2.367083-3.313916 0-6.154415 0-8.048081h-2.367083a7.101248 7.101248 0 0 0 0-3.313916h1.42025c-4.734166 0 0-8.048081 0-8.994915s-2.840499 0-3.313916 0h3.313916-3.313916c3.313916-5.680999 5.207582-8.048081 2.840499-10.415164v-2.840499a7.574665 7.574665 0 0 0 3.787333-3.313916h-3.313916a34.559408 34.559408 0 0 0 2.367083-6.627832v-5.207582a14.202497 14.202497 0 0 0 2.367082-4.734165h-3.313915v-3.313916V520.758206c0-2.367083 0 0 0 0h-2.8405c-0.473417 0 4.734166-14.202497 7.574665-20.830328 0 2.840499-4.260749 8.994914-3.313916 9.941748s0 3.313916 0 4.260748a26.511327 26.511327 0 0 0-4.734165 7.101249h6.154415c3.787332 0-2.840499 3.313916-2.840499 4.260749a4.260749 4.260749 0 0 1 0-2.367083h3.313915c3.313916 0 2.367083-2.840499 0-3.787332s0-6.154415 0-7.101249a296.358761 296.358761 0 0 1 11.835414-36.453074s2.367083 0 3.313916-4.260749 0 0-2.367083 0h2.8405a346.067499 346.067499 0 0 1 37.399907-51.602404h3.787333a15.622746 15.622746 0 0 1 4.260749-6.154415v-2.367083c0-2.367083 0 0 0 0a5.680999 5.680999 0 0 0 4.734165 0 10.888581 10.888581 0 0 0 3.313916-5.680999c0 2.840499 3.787332 0 5.680999 0h2.367082l-3.787332 3.313916a9.468331 9.468331 0 0 0-2.840499 3.787333h2.367082l-6.627831 3.787332a47.341655 47.341655 0 0 0-7.101249 8.048081 8.521498 8.521498 0 0 0 3.787333 0V421.34073c0-0.473417 2.840499 0 4.734165 0l3.787333-3.787332h2.840499v-3.313916a16.096163 16.096163 0 0 1 7.574665-2.367083v-3.313915c0-3.313916 0 0 2.367083 0s0 0 2.367082-3.787333a47.341655 47.341655 0 0 0 9.468331-8.994914s7.574665-4.734166 8.048082-4.260749 0 0 0-2.367083 10.888581-5.680999 11.835414-4.260749 0 0 0-2.367083l2.840499-2.840499a90.895978 90.895978 0 0 1 30.772076-9.468331s8.521498 0 13.255663-3.787332 3.313916-2.367083 4.734166 0a148.17938 148.17938 0 0 0 25.091077 2.840499h8.994914l26.984744 20.356912a6.154415 6.154415 0 0 0 0 4.260749H710.124827c0.946833 0 0 2.367083 0 3.313915s0 0 2.840499 0 0 6.154415 0 6.154416 2.840499 14.675913 3.313916 19.883495 0 0 0 2.840499a16.096163 16.096163 0 0 0-3.313916 9.468331s-3.313916 3.313916-2.367083 4.260749 2.840499 0 4.260749 0 0 2.840499-2.840499 5.207582h-2.840499c0 4.734166-6.627832 10.888581-6.154416 12.782247a26.984743 26.984743 0 0 1-8.521498 0h2.8405a4.260749 4.260749 0 0 1-2.8405 0v2.840499a12.782247 12.782247 0 0 0-4.260749 4.260749h-2.840499c-2.840499 0-2.840499 5.207582-3.313916 6.627832s2.367083-2.840499 3.313916-4.260749 0 0 0 2.367083h-3.313916a9.468331 9.468331 0 0 0 0 2.367082 17.516412 17.516412 0 0 0 0 2.8405 27.45816 27.45816 0 0 1 0 4.734165s0 2.840499-2.840499 4.734166v-3.313916a26.984743 26.984743 0 0 0 2.840499-3.313916h2.8405a44.501156 44.501156 0 0 1 4.734165-8.048081 5.680999 5.680999 0 0 1 0-2.8405h-5.680998a24.617661 24.617661 0 0 1 0 5.680999h-5.207583 3.313916c0.473417 0 0 2.840499-3.313916 3.313916s-2.367083 0-3.313915 0 0 0 0 3.787332 0 0-2.367083 0a7.574665 7.574665 0 0 0-2.840499 3.787333 15.14933 15.14933 0 0 1 0 3.787332l-3.787333 2.840499v3.313916c0 0.473417 0 0 0 0s0 2.367083-2.367083 3.787333 0 0-2.840499 0 0 0 0 4.260749a27.45816 27.45816 0 0 1-5.680999 5.207582h-4.260749l-4.260748 4.260749-4.260749 6.627831s0-3.313916 2.840499-5.207582h2.840499-2.840499 2.367083v-3.313916a35.032825 35.032825 0 0 0-6.627832 3.313916l-2.367083 2.8405c-2.367083 2.840499 0 0 0 0a14.675913 14.675913 0 0 0 0 4.260749h4.260749a7.101248 7.101248 0 0 1-2.840499 4.260749h-11.835414c-2.840499 0 0 0 0 2.367082a17.989829 17.989829 0 0 0-2.840499 2.8405h-2.8405a13.72908 13.72908 0 0 0-5.680998 0h3.787332c3.787332 0 0 0 0-2.8405s-13.255663 3.787332-15.149329 0a68.6454 68.6454 0 0 0-18.463246-5.207582 3.313916 3.313916 0 0 1 2.840499 0h-6.154415c-0.946833 0 0-5.207582-5.680998 0h2.367082v3.313916c0 0.473417 2.840499 0 3.787333 0h-3.313916c0-2.840499-2.840499-3.787332-4.260749-4.260749h-4.734166a22.250578 22.250578 0 0 0 7.101249-12.782247h2.840499c2.840499 0 0 0 0 0h2.840499c3.313916 0 8.994914-6.154415 9.941748-5.207582s4.734166 0 7.101248 0h2.840499c5.207582 0 8.994914 2.367083 13.72908 2.840499s0 0 0-2.840499a25.564494 25.564494 0 0 0-9.468331-2.840499l5.207583-5.207582v3.313916a22.723994 22.723994 0 0 0 14.202496 3.787332 30.772076 30.772076 0 0 0 15.14933-7.101248 142.024965 142.024965 0 0 0 27.45816-38.346741s0-13.72908-4.260749-16.569579-12.782247-3.313916-14.202497-4.260749-6.627832 0-10.888581 0a66.751734 66.751734 0 0 1 11.835414-4.260749 15.14933 15.14933 0 0 0 0-8.048081c3.787332 0 0 2.367083 0 2.840499h9.468331-6.627831v-3.313916a3.313916 3.313916 0 0 0-3.313916 0s-12.30883 0-13.72908-3.787332c-4.260749 0-8.521498 0-13.255664 4.260749s0 0 0 3.313915-7.574665 0-10.415164 0a6.154415 6.154415 0 0 1 0 2.8405v2.840499c0 2.840499 0 0 0 0s-4.260749 4.260749-5.207582 3.313916-21.303745 6.627832-26.03791 10.415164-3.313916 3.787332-5.680999 3.787332h-5.207582c-5.207582 0-3.787332 3.313916-4.734165 7.101249l3.313915-3.313916v3.313916c0 3.313916-3.787332 0-5.680998 0a58.703652 58.703652 0 0 1-14.202497 13.72908h3.787333a36.926491 36.926491 0 0 0 6.627831-7.574665h2.8405s0-3.313916 2.367083-3.787333h4.734165v-2.367082a10.415164 10.415164 0 0 0 5.680999 0s0-3.787332 3.787332-5.207582a41.660656 41.660656 0 0 0 17.989829-7.574665v-3.313916c0-0.473417 7.101248 0 12.782247 0a2.840499 2.840499 0 0 0 0 2.840499c-3.313916 0-10.415164 3.787332-13.72908 7.101249a81.427647 81.427647 0 0 0-13.255664 6.627831l-15.149329 11.835414h-2.840499c-2.840499 0-4.260749 2.840499-6.154416 4.260749a142.024965 142.024965 0 0 0-19.883495 28.87841 41.18724 41.18724 0 0 1-2.840499 10.88858 16.096163 16.096163 0 0 1 0 2.8405h3.787332-2.840499 2.367083s-2.367083 0 0 0h-2.8405a18.463245 18.463245 0 0 1 10.415165 5.680998h3.313915c3.313916 0-2.367083 9.468331-4.260749 15.14933s0 0 0 2.367083h0.946834l-4.734166 6.154415a4.260749 4.260749 0 0 1 4.260749 0l-2.840499 2.840499h2.367082-3.313915 2.840499-3.787332l-2.8405 3.787332a34.085992 34.085992 0 0 1 2.367083 9.941748s-3.787332 0-4.260749 3.313916a17.516412 17.516412 0 0 1 9.941748 3.787332v2.8405c0 2.840499 0 0-2.8405 0s0 6.154415 0 7.101248 3.313916 0 4.734166 0h3.313916c0.946833 0 0 0 0 2.367083s4.734166 0 7.574664 0h2.367083a5.680999 5.680999 0 0 0 0 2.840499l7.574665 4.734165c-6.627832 0-7.574665 2.840499-8.994914 0s0-3.313916 0-4.260749h-4.260749a60.123902 60.123902 0 0 0-10.415165-4.734165h-2.840499v8.521498c0 0.473417 0 0 3.313916 0s0 0 0-2.840499 2.840499 0 3.787332 0a10.415164 10.415164 0 0 0 0 2.367082c2.840499-2.367083 4.260749-3.313916 5.207582 0s0 0 2.367083 0 0 2.367083 0 2.8405 7.101248-2.367083 7.574665 0c3.313916 4.734166 11.835414 5.207582 16.569579 5.680998a3.787332 3.787332 0 0 0 3.313916 0 20.356912 20.356912 0 0 1 8.048082-4.260749H606.446602c2.367083 0 0 0 0 2.8405a79.060564 79.060564 0 0 1 6.627832-7.101249h-2.8405 6.154416c1.42025 0 0 0 0 0v4.734166c0 1.42025 5.207582-3.787332 6.154415-2.840499s0 0 2.367082 0 3.313916-2.840499 4.260749 0a5.680999 5.680999 0 0 0 3.313916 0 3.787332 3.787332 0 0 1 0 2.840499h5.680999a4.734166 4.734166 0 0 1 0-3.787333v-3.313915l-3.313916 2.840499c-3.313916 2.840499 0 0 0 0h-3.313916l7.574665-3.787333-3.313916 2.367083a30.298659 30.298659 0 0 0-3.787332 3.313916 21.777161 21.777161 0 0 1 0 2.367083 8.521498 8.521498 0 0 1 0-4.260749h-6.154415v-3.313916V583.249191a6.627832 6.627832 0 0 0-3.787333 0 12.782247 12.782247 0 0 0 3.313916-5.680999h-14.202497v-4.260749a6.627832 6.627832 0 0 0 7.574665 0l6.627832-2.840499a17.989829 17.989829 0 0 0 8.521498-2.367083 14.202497 14.202497 0 0 0 0 4.734166s0-2.367083 2.840499-2.367083h2.8405l6.627831-2.840499v2.840499l0.473417 16.569579h6.627831c2.367083 0 0-2.840499 0-5.207582h2.8405a25.564494 25.564494 0 0 1 0 3.787333s0-2.840499 2.840499 0 0 0 5.207582 0a14.202497 14.202497 0 0 1 4.734166-3.787333s-3.313916 2.840499-4.260749 3.787333l5.680998-3.313916v4.734165a30.772076 30.772076 0 0 0-8.521498 4.260749s-2.840499 0-2.840499 3.313916h-4.734165a6.627832 6.627832 0 0 1 3.313915 0l-4.260749 2.840499v4.734166c0 4.734166-2.840499 0-3.313915 0a25.564494 25.564494 0 0 0 6.627831-4.260749v3.787332c0 3.787332 0 0-2.840499 0a128.769302 128.769302 0 0 1 20.356912-7.574664h4.734165a7.101248 7.101248 0 0 0 2.8405 0 11.835414 11.835414 0 0 0 3.313915-3.313916c0 3.313916 0 0 3.313916 0l-3.787332 2.840499a80.007397 80.007397 0 0 0 13.255663-4.260749h-3.787332v-2.840499c0-2.840499 9.941748-3.787332 11.835414-5.680999s0 0 0-2.367083l9.468331-5.680998a34.559408 34.559408 0 0 1-7.574665 3.313916c2.840499 0 6.627832-3.313916 7.574665 0s0 0 0-2.8405 0 0 3.313916 0 0-3.313916 3.787332-4.734165 3.313916-2.840499 4.260749-3.313916h2.367083s0-3.313916 2.367082-5.207582 0 0 2.8405 0 0-3.313916 4.260749-5.207582c8.521498-9.941748 17.042996-18.936662 25.091077-28.87841s12.30883-12.30883 9.941747-17.989829a53.969487 53.969487 0 0 1 6.154416-8.048081 148.17938 148.17938 0 0 0 10.415164-14.675913v-5.207582c0-1.893666 0 0 0 0v-2.367083c0-2.367083 0 0 0 0h-3.787333c-3.787332 0 0-2.367083 2.367083-4.734165h2.840499a22.723994 22.723994 0 0 1 0-10.415165s3.313916-36.926491 0-42.134073 0 0-2.840499 0 0 14.675913 0 14.675913-2.840499 4.734166 0 5.680999 0 0 2.840499 0 0 5.207582 0 6.154415v4.260749c0 0.946833-4.260749 2.840499-2.367082 4.734166s0 0 0 3.787332-2.840499 2.840499-3.313916 2.367083v-2.367083-7.101248c0-1.893666 0 0 0 0-4.260749-3.787332 0-17.516412 0-18.463246v-8.521498c0-0.946833 0-8.048081-5.207582-10.415164s0 0 0-2.840499 0 0-2.8405 0-7.101248 0-8.521497-3.313916-8.994914-5.207582-12.782247-8.994914 0-3.313916 0-4.260749l-15.622747-8.048082h-6.627831a122.14147 122.14147 0 0 0-15.622746-3.787332s-23.670828-9.941748-28.404994-14.202497-8.994914 0-13.255663 0h-11.835414c-5.207582 0 0 0 0 0l-18.463245 4.734166c-3.313916-3.313916-22.723994 0-24.144244 0 0-3.313916 0 0-4.260749 0a25.091077 25.091077 0 0 1-5.680999 0h-5.680999c-1.42025 0 0 0 0 0h-5.680998c-0.946833 0 0 0 0 0h-4.260749c-1.42025 0 0 0 0 0v2.840499a17.516412 17.516412 0 0 0-6.154415 0v2.8405h-74.326399c-4.260749-2.840499-20.830328 0-21.303745 0h-39.76699l-42.607489-5.680999a126.875636 126.875636 0 0 1-13.255664-3.313916 72.432732 72.432732 0 0 0-17.989829-6.627832 47.341655 47.341655 0 0 0-10.415164-4.260749c6.154415 29.351826 12.30883 58.703652 16.569579 89.949145v20.356912a605.499769 605.499769 0 0 1 4.734166 99.417476h17.516412v11.361997c0 3.787332-3.787332 6.154415-2.840499 7.101248s0 2.840499 0 3.787332a103.678225 103.678225 0 0 1 0 33.612576c0 4.734166 2.840499 17.989829 6.154415 22.723994s-2.840499 5.680999 0 6.627832 0 0 2.840499 0 0 9.941748 0 10.88858 7.101248 24.144244 10.415165 31.718909l-2.8405 3.313916a4.734166 4.734166 0 0 1 4.260749 0h3.313916c0.473417 0 0 3.313916 0 4.260749s0 0 2.367083 0h2.840499c0.473417 0-2.840499 0 0 0s3.313916 9.941748 5.680999 12.30883 0 4.734166 0 4.734166h4.260749c0.946833 0 0 0 0 2.840499v7.574665a5.207582 5.207582 0 0 1 5.207582 0 9.941748 9.941748 0 0 1 2.840499 6.627832l2.840499-29.351826h4.260749c0.946833 0 0 5.680999 0 6.154415s3.313916 0 4.260749 0 0 2.367083 0 4.260749a5.207582 5.207582 0 0 0-2.840499 2.367083h4.734165c0.946833 0-2.367083 0 0 2.840499s3.313916 0 3.787333 0 0 4.260749 0 5.680998 3.313916 0 2.367083 0-2.840499 3.787332-2.8405 3.787333h7.101249c1.42025 0 0 5.207582 0 5.207582h3.787332c0.946833 0 0 2.367083 0 3.313916a22.250578 22.250578 0 0 0 9.941748 0l4.260749 3.787332s6.154415 0 7.574664 2.840499 0 0 0 2.367083 8.048081 0 9.468331 0 0 2.367083 0 3.313916 0 0 3.313916 0a87.108645 87.108645 0 0 0 37.873324 6.154415s-2.367083 0 0 0h5.207582c0.946833 0 0 0 0 2.367083s6.627832-2.840499 7.574665 0a18.463245 18.463245 0 0 0 7.101248 0h32.192326a57.756819 57.756819 0 0 0 17.516412 0h29.351826s5.207582-2.367083 6.154416 0a296.358761 296.358761 0 0 1 33.139158 0 225.819695 225.819695 0 0 0 33.139159 0h6.627832a473.416551 473.416551 0 0 0 86.161812-2.840499h35.979658c2.367083 0 0 0 0 2.840499a17.989829 17.989829 0 0 0 8.521498-3.313916h22.723994a26.511327 26.511327 0 0 1 5.207582-2.367083 30.298659 30.298659 0 0 0 0 3.787333 263.219602 263.219602 0 0 0 44.501156 6.154415 26.03791 26.03791 0 0 0 7.101248 0A511.763292 511.763292 0 0 0 512.236708 0z" /></svg>
